<svg xmlns="http://www.w3.org/2000/svg" xmlns:xlink="http://www.w3.org/1999/xlink" width="2079" zoomAndPan="magnify" viewBox="0 0 1559.25 992.249974" height="1323" preserveAspectRatio="xMidYMid meet" version="1.0"><defs><g/><clipPath id="c48b19c399"><path d="M 134 2 L 1444 2 L 1444 991.5 L 134 991.5 Z M 134 2 " clip-rule="nonzero"/></clipPath><clipPath id="20cf0386f8"><path d="M 14.554688 14.394531 L 614.175781 14.394531 L 614.175781 979.488281 L 14.554688 979.488281 Z M 14.554688 14.394531 " clip-rule="nonzero"/></clipPath><clipPath id="d3818ac16b"><path d="M 611.652344 14.386719 L 1294.449219 14.386719 L 1294.449219 508.289062 L 611.652344 508.289062 Z M 611.652344 14.386719 " clip-rule="nonzero"/></clipPath><clipPath id="6261de638b"><path d="M 611.648438 505.464844 L 991.457031 505.464844 L 991.457031 979.164062 L 611.648438 979.164062 Z M 611.648438 505.464844 " clip-rule="nonzero"/></clipPath><clipPath id="cbf21b829d"><path d="M 988.632812 505.464844 L 1294.4375 505.464844 L 1294.4375 747.199219 L 988.632812 747.199219 Z M 988.632812 505.464844 " clip-rule="nonzero"/></clipPath><clipPath id="3d52096e4a"><path d="M 988.632812 743.898438 L 1294.4375 743.898438 L 1294.4375 979.25 L 988.632812 979.25 Z M 988.632812 743.898438 " clip-rule="nonzero"/></clipPath><clipPath id="df94d6981c"><path d="M 0.371094 34 L 69 34 L 69 106 L 0.371094 106 Z M 0.371094 34 " clip-rule="nonzero"/></clipPath><clipPath id="defa669754"><rect x="0" width="127" y="0" height="136"/></clipPath><clipPath id="5673eeeba5"><rect x="0" width="311" y="0" height="67"/></clipPath><clipPath id="7e4fd259c3"><path d="M 0.71875 28 L 58 28 L 58 88 L 0.71875 88 Z M 0.71875 28 " clip-rule="nonzero"/></clipPath><clipPath id="0e9a2fd7c3"><rect x="0" width="106" y="0" height="113"/></clipPath><clipPath id="24058253eb"><rect x="0" width="259" y="0" height="55"/></clipPath><clipPath id="bdef384bee"><path d="M 0.195312 24 L 48 24 L 48 74 L 0.195312 74 Z M 0.195312 24 " clip-rule="nonzero"/></clipPath><clipPath id="ea79f7d370"><rect x="0" width="88" y="0" height="95"/></clipPath><clipPath id="e8a1cc2be3"><rect x="0" width="217" y="0" height="46"/></clipPath><clipPath id="309e2814ea"><path d="M 0.199219 18 L 36 18 L 36 55 L 0.199219 55 Z M 0.199219 18 " clip-rule="nonzero"/></clipPath><clipPath id="22aafa9393"><rect x="0" width="65" y="0" height="70"/></clipPath><clipPath id="60b65c9387"><rect x="0" width="180" y="0" height="34"/></clipPath><clipPath id="6238a95b5e"><path d="M 0.199219 17 L 36 17 L 36 54 L 0.199219 54 Z M 0.199219 17 " clip-rule="nonzero"/></clipPath><clipPath id="6426248e88"><rect x="0" width="65" y="0" height="69"/></clipPath><clipPath id="992f810684"><rect x="0" width="179" y="0" height="35"/></clipPath><clipPath id="6b0ea0d7b1"><rect x="0" width="1310" y="0" height="990"/></clipPath></defs><g clip-path="url(#c48b19c399)"><g transform="matrix(1, 0, 0, 1, 134, 2)"><g clip-path="url(#6b0ea0d7b1)"><g clip-path="url(#20cf0386f8)"><path stroke-linecap="butt" transform="matrix(0.749527, 0, 0, 0.749527, 14.553378, 14.393157)" fill="none" stroke-linejoin="miter" d="M 0.0017475 0.00183387 L 800.391801 0.00183387 L 800.391801 1287.60532 L 0.0017475 1287.60532 Z M 0.0017475 0.00183387 " stroke="#000000" stroke-width="8" stroke-opacity="1" stroke-miterlimit="4"/></g><g clip-path="url(#d3818ac16b)"><path stroke-linecap="butt" transform="matrix(0.749527, 0, 0, 0.749527, 611.652104, 14.385523)" fill="none" stroke-linejoin="miter" d="M 0.000319234 0.00159496 L 910.970422 0.00159496 L 910.970422 658.953452 L 0.000319234 658.953452 Z M 0.000319234 0.00159496 " stroke="#000000" stroke-width="8" stroke-opacity="1" stroke-miterlimit="4"/></g><g clip-path="url(#6261de638b)"><path stroke-linecap="butt" transform="matrix(0.749527, 0, 0, 0.749527, 611.646541, 505.466401)" fill="none" stroke-linejoin="miter" d="M 0.00253069 -0.00207798 L 506.733396 -0.00207798 L 506.733396 632.433023 L 0.00253069 632.433023 Z M 0.00253069 -0.00207798 " stroke="#000000" stroke-width="8" stroke-opacity="1" stroke-miterlimit="4"/></g><g clip-path="url(#cbf21b829d)"><path stroke-linecap="butt" transform="matrix(0.749527, 0, 0, 0.749527, 988.633407, 505.464603)" fill="none" stroke-linejoin="miter" d="M -0.000792803 0.000321724 L 408.011624 0.000321724 L 408.011624 322.516133 L -0.000792803 322.516133 Z M -0.000792803 0.000321724 " stroke="#000000" stroke-width="8" stroke-opacity="1" stroke-miterlimit="4"/></g><g clip-path="url(#3d52096e4a)"><path stroke-linecap="butt" transform="matrix(0.749527, 0, 0, 0.749527, 988.631896, 743.898149)" fill="none" stroke-linejoin="miter" d="M 0.00122295 0.000385401 L 408.013679 0.000385401 L 408.013679 314.328774 L 0.00122295 314.328774 Z M 0.00122295 0.000385401 " stroke="#000000" stroke-width="8" stroke-opacity="1" stroke-miterlimit="4"/></g><g transform="matrix(1, 0, 0, 1, 239, 399)"><g clip-path="url(#defa669754)"><g clip-path="url(#df94d6981c)"><g fill="#0d1423" fill-opacity="1"><g transform="translate(0.511178, 105.781197)"><g><path d="M 52.171875 0 L 47.046875 -16.828125 L 21.28125 -16.828125 L 16.15625 0 L 0 0 L 24.953125 -70.984375 L 43.28125 -70.984375 L 68.328125 0 Z M 43.46875 -29.40625 C 38.726562 -44.644531 36.0625 -53.265625 35.46875 -55.265625 C 34.875 -57.265625 34.445312 -58.847656 34.1875 -60.015625 C 33.125 -55.878906 30.078125 -45.675781 25.046875 -29.40625 Z M 43.46875 -29.40625 "/></g></g></g></g><g fill="#0d1423" fill-opacity="1"><g transform="translate(68.830164, 105.781197)"><g><path d="M 50.625 -54.890625 C 50.625 -50.472656 49.285156 -46.710938 46.609375 -43.609375 C 43.929688 -40.515625 40.175781 -38.390625 35.34375 -37.234375 L 35.34375 -36.9375 C 41.050781 -36.226562 45.367188 -34.492188 48.296875 -31.734375 C 51.234375 -28.984375 52.703125 -25.269531 52.703125 -20.59375 C 52.703125 -13.789062 50.234375 -8.492188 45.296875 -4.703125 C 40.367188 -0.921875 33.328125 0.96875 24.171875 0.96875 C 16.503906 0.96875 9.703125 -0.304688 3.765625 -2.859375 L 3.765625 -15.578125 C 6.503906 -14.179688 9.519531 -13.046875 12.8125 -12.171875 C 16.101562 -11.304688 19.359375 -10.875 22.578125 -10.875 C 27.515625 -10.875 31.160156 -11.710938 33.515625 -13.390625 C 35.867188 -15.066406 37.046875 -17.757812 37.046875 -21.46875 C 37.046875 -24.789062 35.691406 -27.144531 32.984375 -28.53125 C 30.273438 -29.914062 25.953125 -30.609375 20.015625 -30.609375 L 14.65625 -30.609375 L 14.65625 -42.0625 L 20.109375 -42.0625 C 25.597656 -42.0625 29.601562 -42.78125 32.125 -44.21875 C 34.65625 -45.65625 35.921875 -48.113281 35.921875 -51.59375 C 35.921875 -56.945312 32.570312 -59.625 25.875 -59.625 C 23.550781 -59.625 21.1875 -59.234375 18.78125 -58.453125 C 16.382812 -57.679688 13.71875 -56.347656 10.78125 -54.453125 L 3.875 -64.75 C 10.320312 -69.382812 18.007812 -71.703125 26.9375 -71.703125 C 34.25 -71.703125 40.023438 -70.21875 44.265625 -67.25 C 48.503906 -64.289062 50.625 -60.171875 50.625 -54.890625 Z M 50.625 -54.890625 "/></g></g></g></g></g><g transform="matrix(1, 0, 0, 1, 159, 524)"><g clip-path="url(#5673eeeba5)"><g fill="#184e86" fill-opacity="1"><g transform="translate(0.636266, 51.926254)"><g><path d="M 24.984375 0 L 2.296875 0 L 2.296875 -3.515625 L 11.28125 -12.59375 C 13.988281 -15.332031 15.78125 -17.285156 16.65625 -18.453125 C 17.53125 -19.628906 18.179688 -20.765625 18.609375 -21.859375 C 19.035156 -22.953125 19.25 -24.132812 19.25 -25.40625 C 19.25 -27.21875 18.707031 -28.628906 17.625 -29.640625 C 16.550781 -30.660156 15.078125 -31.171875 13.203125 -31.171875 C 11.796875 -31.171875 10.460938 -30.9375 9.203125 -30.46875 C 7.941406 -30 6.523438 -29.144531 4.953125 -27.90625 L 2.703125 -30.75 C 5.898438 -33.4375 9.398438 -34.78125 13.203125 -34.78125 C 16.390625 -34.78125 18.914062 -33.960938 20.78125 -32.328125 C 22.65625 -30.691406 23.59375 -28.46875 23.59375 -25.65625 C 23.59375 -24.15625 23.316406 -22.703125 22.765625 -21.296875 C 22.222656 -19.898438 21.40625 -18.476562 20.3125 -17.03125 C 19.21875 -15.59375 17.378906 -13.613281 14.796875 -11.09375 L 7.640625 -4.03125 L 7.640625 -3.84375 L 24.984375 -3.84375 Z M 24.984375 0 "/></g></g></g><g fill="#184e86" fill-opacity="1"><g transform="translate(28.096501, 51.926254)"><g><path d="M 24.984375 -19.65625 C 24.984375 -6.238281 19.726562 0.46875 9.21875 0.46875 C 7.40625 0.46875 5.96875 0.3125 4.90625 0 L 4.90625 -3.609375 C 6.101562 -3.191406 7.507812 -2.984375 9.125 -2.984375 C 11.675781 -2.984375 13.78125 -3.492188 15.4375 -4.515625 C 17.09375 -5.535156 18.351562 -7.023438 19.21875 -8.984375 C 20.082031 -10.953125 20.578125 -13.5625 20.703125 -16.8125 L 20.40625 -16.8125 C 18.65625 -14.15625 15.9375 -12.828125 12.25 -12.828125 C 9.226562 -12.828125 6.828125 -13.742188 5.046875 -15.578125 C 3.273438 -17.421875 2.390625 -19.957031 2.390625 -23.1875 C 2.390625 -26.726562 3.378906 -29.546875 5.359375 -31.640625 C 7.347656 -33.734375 10.007812 -34.78125 13.34375 -34.78125 C 15.6875 -34.78125 17.738281 -34.179688 19.5 -32.984375 C 21.257812 -31.785156 22.613281 -30.039062 23.5625 -27.75 C 24.507812 -25.46875 24.984375 -22.769531 24.984375 -19.65625 Z M 13.34375 -31.21875 C 11.21875 -31.21875 9.5625 -30.519531 8.375 -29.125 C 7.1875 -27.738281 6.59375 -25.773438 6.59375 -23.234375 C 6.59375 -20.953125 7.148438 -19.207031 8.265625 -18 C 9.378906 -16.789062 11.007812 -16.1875 13.15625 -16.1875 C 14.5625 -16.1875 15.84375 -16.46875 17 -17.03125 C 18.15625 -17.601562 19.0625 -18.375 19.71875 -19.34375 C 20.375 -20.3125 20.703125 -21.335938 20.703125 -22.421875 C 20.703125 -23.984375 20.394531 -25.441406 19.78125 -26.796875 C 19.164062 -28.160156 18.300781 -29.238281 17.1875 -30.03125 C 16.082031 -30.820312 14.800781 -31.21875 13.34375 -31.21875 Z M 13.34375 -31.21875 "/></g></g></g><g fill="#184e86" fill-opacity="1"><g transform="translate(55.556736, 51.926254)"><g><path d="M 3.453125 -2.609375 C 3.453125 -3.640625 3.703125 -4.429688 4.203125 -4.984375 C 4.710938 -5.535156 5.4375 -5.8125 6.375 -5.8125 C 7.332031 -5.8125 8.078125 -5.535156 8.609375 -4.984375 C 9.140625 -4.429688 9.40625 -3.640625 9.40625 -2.609375 C 9.40625 -1.585938 9.140625 -0.78125 8.609375 -0.1875 C 8.078125 0.394531 7.332031 0.6875 6.375 0.6875 C 5.457031 0.6875 4.738281 0.394531 4.21875 -0.1875 C 3.707031 -0.769531 3.453125 -1.578125 3.453125 -2.609375 Z M 3.453125 -2.609375 "/></g></g></g><g fill="#184e86" fill-opacity="1"><g transform="translate(68.430921, 51.926254)"><g><path d="M 6.546875 0 L 20.609375 -30.4375 L 2.109375 -30.4375 L 2.109375 -34.28125 L 25.125 -34.28125 L 25.125 -31.03125 L 11.1875 0 Z M 6.546875 0 "/></g></g></g><g fill="#184e86" fill-opacity="1"><g transform="translate(95.891161, 51.926254)"><g/></g></g><g fill="#184e86" fill-opacity="1"><g transform="translate(108.366678, 51.926254)"><g><path d="M 10.171875 -13.15625 L 1.296875 -25.75 L 6.09375 -25.75 L 12.734375 -16.046875 L 19.296875 -25.75 L 24.0625 -25.75 L 15.171875 -13.15625 L 24.5625 0 L 19.75 0 L 12.734375 -10.265625 L 5.625 0 L 0.875 0 Z M 10.171875 -13.15625 "/></g></g></g><g fill="#184e86" fill-opacity="1"><g transform="translate(133.763298, 51.926254)"><g/></g></g><g fill="#184e86" fill-opacity="1"><g transform="translate(146.238826, 51.926254)"><g><path d="M 26.5 -7.78125 L 21.53125 -7.78125 L 21.53125 0 L 17.421875 0 L 17.421875 -7.78125 L 1.015625 -7.78125 L 1.015625 -11.375 L 17.140625 -34.46875 L 21.53125 -34.46875 L 21.53125 -11.578125 L 26.5 -11.578125 Z M 17.421875 -11.578125 L 17.421875 -22.375 C 17.421875 -24.519531 17.507812 -27.050781 17.6875 -29.96875 L 17.46875 -29.96875 C 17.300781 -29.5625 17 -28.953125 16.5625 -28.140625 C 16.132812 -27.328125 15.75 -26.6875 15.40625 -26.21875 L 5.140625 -11.578125 Z M 17.421875 -11.578125 "/></g></g></g><g fill="#184e86" fill-opacity="1"><g transform="translate(173.699055, 51.926254)"><g><path d="M 24.984375 0 L 2.296875 0 L 2.296875 -3.515625 L 11.28125 -12.59375 C 13.988281 -15.332031 15.78125 -17.285156 16.65625 -18.453125 C 17.53125 -19.628906 18.179688 -20.765625 18.609375 -21.859375 C 19.035156 -22.953125 19.25 -24.132812 19.25 -25.40625 C 19.25 -27.21875 18.707031 -28.628906 17.625 -29.640625 C 16.550781 -30.660156 15.078125 -31.171875 13.203125 -31.171875 C 11.796875 -31.171875 10.460938 -30.9375 9.203125 -30.46875 C 7.941406 -30 6.523438 -29.144531 4.953125 -27.90625 L 2.703125 -30.75 C 5.898438 -33.4375 9.398438 -34.78125 13.203125 -34.78125 C 16.390625 -34.78125 18.914062 -33.960938 20.78125 -32.328125 C 22.65625 -30.691406 23.59375 -28.46875 23.59375 -25.65625 C 23.59375 -24.15625 23.316406 -22.703125 22.765625 -21.296875 C 22.222656 -19.898438 21.40625 -18.476562 20.3125 -17.03125 C 19.21875 -15.59375 17.378906 -13.613281 14.796875 -11.09375 L 7.640625 -4.03125 L 7.640625 -3.84375 L 24.984375 -3.84375 Z M 24.984375 0 "/></g></g></g><g fill="#184e86" fill-opacity="1"><g transform="translate(201.159295, 51.926254)"><g/></g></g><g fill="#184e86" fill-opacity="1"><g transform="translate(213.634812, 51.926254)"><g><path d="M 1.921875 -13.15625 C 1.921875 -17.300781 2.523438 -21.175781 3.734375 -24.78125 C 4.953125 -28.394531 6.703125 -31.5625 8.984375 -34.28125 L 12.96875 -34.28125 C 10.71875 -31.269531 9.023438 -27.957031 7.890625 -24.34375 C 6.753906 -20.726562 6.1875 -17.015625 6.1875 -13.203125 C 6.1875 -9.453125 6.765625 -5.785156 7.921875 -2.203125 C 9.078125 1.378906 10.742188 4.644531 12.921875 7.59375 L 8.984375 7.59375 C 6.679688 4.9375 4.925781 1.835938 3.71875 -1.703125 C 2.519531 -5.253906 1.921875 -9.070312 1.921875 -13.15625 Z M 1.921875 -13.15625 "/></g></g></g><g fill="#184e86" fill-opacity="1"><g transform="translate(228.033277, 51.926254)"><g><path d="M 14.40625 0.46875 C 10.695312 0.46875 7.8125 -0.664062 5.75 -2.9375 C 3.6875 -5.21875 2.65625 -8.484375 2.65625 -12.734375 C 2.65625 -17.046875 3.695312 -20.367188 5.78125 -22.703125 C 7.863281 -25.046875 10.835938 -26.21875 14.703125 -26.21875 C 15.953125 -26.21875 17.191406 -26.085938 18.421875 -25.828125 C 19.648438 -25.578125 20.660156 -25.25 21.453125 -24.84375 L 20.171875 -21.3125 C 17.992188 -22.125 16.140625 -22.53125 14.609375 -22.53125 C 12.015625 -22.53125 10.097656 -21.710938 8.859375 -20.078125 C 7.628906 -18.453125 7.015625 -16.019531 7.015625 -12.78125 C 7.015625 -9.664062 7.628906 -7.285156 8.859375 -5.640625 C 10.097656 -3.992188 11.929688 -3.171875 14.359375 -3.171875 C 16.617188 -3.171875 18.84375 -3.671875 21.03125 -4.671875 L 21.03125 -0.921875 C 19.25 0.00390625 17.039062 0.46875 14.40625 0.46875 Z M 14.40625 0.46875 "/></g></g></g><g fill="#184e86" fill-opacity="1"><g transform="translate(251.084861, 51.926254)"><g><path d="M 36.84375 0 L 36.84375 -16.578125 C 36.84375 -20.640625 35.097656 -22.671875 31.609375 -22.671875 C 29.222656 -22.671875 27.46875 -21.972656 26.34375 -20.578125 C 25.21875 -19.191406 24.65625 -17.070312 24.65625 -14.21875 L 24.65625 0 L 20.453125 0 L 20.453125 -16.578125 C 20.453125 -18.609375 20.023438 -20.128906 19.171875 -21.140625 C 18.316406 -22.160156 16.984375 -22.671875 15.171875 -22.671875 C 12.796875 -22.671875 11.054688 -21.941406 9.953125 -20.484375 C 8.847656 -19.035156 8.296875 -16.65625 8.296875 -13.34375 L 8.296875 0 L 4.078125 0 L 4.078125 -25.75 L 7.484375 -25.75 L 8.109375 -22.234375 L 8.34375 -22.234375 C 9.082031 -23.484375 10.117188 -24.457031 11.453125 -25.15625 C 12.796875 -25.863281 14.296875 -26.21875 15.953125 -26.21875 C 19.984375 -26.21875 22.609375 -24.78125 23.828125 -21.90625 L 24.0625 -21.90625 C 24.894531 -23.28125 26.023438 -24.34375 27.453125 -25.09375 C 28.878906 -25.84375 30.5 -26.21875 32.3125 -26.21875 C 35.226562 -26.21875 37.40625 -25.46875 38.84375 -23.96875 C 40.289062 -22.46875 41.015625 -20.066406 41.015625 -16.765625 L 41.015625 0 Z M 36.84375 0 "/></g></g></g><g fill="#184e86" fill-opacity="1"><g transform="translate(295.992081, 51.926254)"><g><path d="M 12.484375 -13.15625 C 12.484375 -9.039062 11.875 -5.207031 10.65625 -1.65625 C 9.445312 1.882812 7.703125 4.96875 5.421875 7.59375 L 1.484375 7.59375 C 3.648438 4.65625 5.3125 1.394531 6.46875 -2.1875 C 7.625 -5.78125 8.203125 -9.453125 8.203125 -13.203125 C 8.203125 -17.015625 7.632812 -20.726562 6.5 -24.34375 C 5.375 -27.957031 3.6875 -31.269531 1.4375 -34.28125 L 5.421875 -34.28125 C 7.710938 -31.550781 9.460938 -28.375 10.671875 -24.75 C 11.878906 -21.132812 12.484375 -17.269531 12.484375 -13.15625 Z M 12.484375 -13.15625 "/></g></g></g></g></g><g transform="matrix(1, 0, 0, 1, 890, 180)"><g clip-path="url(#0e9a2fd7c3)"><g clip-path="url(#7e4fd259c3)"><g fill="#0d1423" fill-opacity="1"><g transform="translate(0.750023, 87.852755)"><g><path d="M 43.328125 0 L 39.078125 -13.96875 L 17.671875 -13.96875 L 13.40625 0 L 0 0 L 20.71875 -58.953125 L 35.9375 -58.953125 L 56.75 0 Z M 36.109375 -24.421875 C 32.171875 -37.085938 29.953125 -44.25 29.453125 -45.90625 C 28.960938 -47.5625 28.609375 -48.875 28.390625 -49.84375 C 27.503906 -46.414062 24.972656 -37.941406 20.796875 -24.421875 Z M 36.109375 -24.421875 "/></g></g></g></g><g fill="#0d1423" fill-opacity="1"><g transform="translate(57.497012, 87.852755)"><g><path d="M 45.65625 -12.171875 L 38.59375 -12.171875 L 38.59375 0 L 26.46875 0 L 26.46875 -12.171875 L 1.40625 -12.171875 L 1.40625 -20.796875 L 27.15625 -58.71875 L 38.59375 -58.71875 L 38.59375 -21.8125 L 45.65625 -21.8125 Z M 26.46875 -21.8125 L 26.46875 -31.765625 C 26.46875 -33.421875 26.535156 -35.828125 26.671875 -38.984375 C 26.804688 -42.148438 26.910156 -43.988281 26.984375 -44.5 L 26.671875 -44.5 C 25.679688 -42.300781 24.488281 -40.160156 23.09375 -38.078125 L 12.328125 -21.8125 Z M 26.46875 -21.8125 "/></g></g></g></g></g><g transform="matrix(1, 0, 0, 1, 828, 284)"><g clip-path="url(#24058253eb)"><g fill="#184e86" fill-opacity="1"><g transform="translate(0.919642, 42.947143)"><g><path d="M 20.75 0 L 1.90625 0 L 1.90625 -2.921875 L 9.375 -10.453125 C 11.613281 -12.734375 13.097656 -14.359375 13.828125 -15.328125 C 14.554688 -16.304688 15.097656 -17.25 15.453125 -18.15625 C 15.804688 -19.0625 15.984375 -20.039062 15.984375 -21.09375 C 15.984375 -22.601562 15.535156 -23.78125 14.640625 -24.625 C 13.742188 -25.46875 12.519531 -25.890625 10.96875 -25.890625 C 9.800781 -25.890625 8.691406 -25.691406 7.640625 -25.296875 C 6.597656 -24.910156 5.421875 -24.203125 4.109375 -23.171875 L 2.234375 -25.53125 C 4.898438 -27.769531 7.8125 -28.890625 10.96875 -28.890625 C 13.613281 -28.890625 15.710938 -28.207031 17.265625 -26.84375 C 18.816406 -25.488281 19.59375 -23.644531 19.59375 -21.3125 C 19.59375 -20.0625 19.363281 -18.851562 18.90625 -17.6875 C 18.457031 -16.53125 17.773438 -15.347656 16.859375 -14.140625 C 15.953125 -12.941406 14.429688 -11.300781 12.296875 -9.21875 L 6.34375 -3.34375 L 6.34375 -3.1875 L 20.75 -3.1875 Z M 20.75 0 "/></g></g></g><g fill="#184e86" fill-opacity="1"><g transform="translate(23.72861, 42.947143)"><g><path d="M 14.15625 0 L 10.734375 0 L 10.734375 -19.90625 C 10.734375 -21.675781 10.785156 -23.3125 10.890625 -24.8125 C 10.523438 -24.425781 10.132812 -24.0625 9.71875 -23.71875 C 8.394531 -22.613281 6.945312 -21.421875 5.375 -20.140625 L 3.546875 -22.5 L 11.265625 -28.484375 L 14.15625 -28.484375 Z M 14.15625 0 "/></g></g></g><g fill="#184e86" fill-opacity="1"><g transform="translate(46.537578, 42.947143)"><g/></g></g><g fill="#184e86" fill-opacity="1"><g transform="translate(56.899977, 42.947143)"><g><path d="M 8.453125 -10.921875 L 1.078125 -21.390625 L 5.0625 -21.390625 L 10.578125 -13.328125 L 16.03125 -21.390625 L 19.984375 -21.390625 L 12.609375 -10.921875 L 20.390625 0 L 16.40625 0 L 10.578125 -8.53125 L 4.671875 0 L 0.71875 0 Z M 8.453125 -10.921875 "/></g></g></g><g fill="#184e86" fill-opacity="1"><g transform="translate(77.994864, 42.947143)"><g/></g></g><g fill="#184e86" fill-opacity="1"><g transform="translate(88.357259, 42.947143)"><g><path d="M 20.75 0 L 1.90625 0 L 1.90625 -2.921875 L 9.375 -10.453125 C 11.613281 -12.734375 13.097656 -14.359375 13.828125 -15.328125 C 14.554688 -16.304688 15.097656 -17.25 15.453125 -18.15625 C 15.804688 -19.0625 15.984375 -20.039062 15.984375 -21.09375 C 15.984375 -22.601562 15.535156 -23.78125 14.640625 -24.625 C 13.742188 -25.46875 12.519531 -25.890625 10.96875 -25.890625 C 9.800781 -25.890625 8.691406 -25.691406 7.640625 -25.296875 C 6.597656 -24.910156 5.421875 -24.203125 4.109375 -23.171875 L 2.234375 -25.53125 C 4.898438 -27.769531 7.8125 -28.890625 10.96875 -28.890625 C 13.613281 -28.890625 15.710938 -28.207031 17.265625 -26.84375 C 18.816406 -25.488281 19.59375 -23.644531 19.59375 -21.3125 C 19.59375 -20.0625 19.363281 -18.851562 18.90625 -17.6875 C 18.457031 -16.53125 17.773438 -15.347656 16.859375 -14.140625 C 15.953125 -12.941406 14.429688 -11.300781 12.296875 -9.21875 L 6.34375 -3.34375 L 6.34375 -3.1875 L 20.75 -3.1875 Z M 20.75 0 "/></g></g></g><g fill="#184e86" fill-opacity="1"><g transform="translate(111.166231, 42.947143)"><g><path d="M 20.75 -16.328125 C 20.75 -5.179688 16.382812 0.390625 7.65625 0.390625 C 6.144531 0.390625 4.953125 0.257812 4.078125 0 L 4.078125 -3 C 5.078125 -2.644531 6.242188 -2.46875 7.578125 -2.46875 C 9.691406 -2.46875 11.4375 -2.894531 12.8125 -3.75 C 14.1875 -4.601562 15.234375 -5.84375 15.953125 -7.46875 C 16.679688 -9.101562 17.097656 -11.269531 17.203125 -13.96875 L 16.953125 -13.96875 C 15.492188 -11.757812 13.234375 -10.65625 10.171875 -10.65625 C 7.660156 -10.65625 5.664062 -11.414062 4.1875 -12.9375 C 2.71875 -14.46875 1.984375 -16.578125 1.984375 -19.265625 C 1.984375 -22.203125 2.804688 -24.539062 4.453125 -26.28125 C 6.109375 -28.019531 8.316406 -28.890625 11.078125 -28.890625 C 13.023438 -28.890625 14.726562 -28.390625 16.1875 -27.390625 C 17.65625 -26.398438 18.78125 -24.953125 19.5625 -23.046875 C 20.351562 -21.148438 20.75 -18.910156 20.75 -16.328125 Z M 11.078125 -25.921875 C 9.316406 -25.921875 7.941406 -25.34375 6.953125 -24.1875 C 5.960938 -23.03125 5.46875 -21.398438 5.46875 -19.296875 C 5.46875 -17.398438 5.929688 -15.945312 6.859375 -14.9375 C 7.796875 -13.9375 9.148438 -13.4375 10.921875 -13.4375 C 12.097656 -13.4375 13.164062 -13.671875 14.125 -14.140625 C 15.082031 -14.617188 15.832031 -15.257812 16.375 -16.0625 C 16.925781 -16.875 17.203125 -17.726562 17.203125 -18.625 C 17.203125 -19.914062 16.941406 -21.125 16.421875 -22.25 C 15.910156 -23.382812 15.191406 -24.28125 14.265625 -24.9375 C 13.347656 -25.59375 12.285156 -25.921875 11.078125 -25.921875 Z M 11.078125 -25.921875 "/></g></g></g><g fill="#184e86" fill-opacity="1"><g transform="translate(133.975204, 42.947143)"><g><path d="M 2.859375 -2.15625 C 2.859375 -3.019531 3.066406 -3.679688 3.484375 -4.140625 C 3.910156 -4.597656 4.515625 -4.828125 5.296875 -4.828125 C 6.085938 -4.828125 6.703125 -4.597656 7.140625 -4.140625 C 7.585938 -3.679688 7.8125 -3.019531 7.8125 -2.15625 C 7.8125 -1.3125 7.585938 -0.644531 7.140625 -0.15625 C 6.703125 0.320312 6.085938 0.5625 5.296875 0.5625 C 4.535156 0.5625 3.9375 0.320312 3.5 -0.15625 C 3.070312 -0.632812 2.859375 -1.300781 2.859375 -2.15625 Z M 2.859375 -2.15625 "/></g></g></g><g fill="#184e86" fill-opacity="1"><g transform="translate(144.668726, 42.947143)"><g><path d="M 5.4375 0 L 17.125 -25.28125 L 1.75 -25.28125 L 1.75 -28.484375 L 20.859375 -28.484375 L 20.859375 -25.765625 L 9.296875 0 Z M 5.4375 0 "/></g></g></g><g fill="#184e86" fill-opacity="1"><g transform="translate(167.477698, 42.947143)"><g/></g></g><g fill="#184e86" fill-opacity="1"><g transform="translate(177.840088, 42.947143)"><g><path d="M 1.59375 -10.921875 C 1.59375 -14.367188 2.09375 -17.59375 3.09375 -20.59375 C 4.101562 -23.59375 5.554688 -26.222656 7.453125 -28.484375 L 10.765625 -28.484375 C 8.898438 -25.972656 7.492188 -23.21875 6.546875 -20.21875 C 5.609375 -17.21875 5.140625 -14.132812 5.140625 -10.96875 C 5.140625 -7.851562 5.617188 -4.804688 6.578125 -1.828125 C 7.546875 1.140625 8.929688 3.851562 10.734375 6.3125 L 7.453125 6.3125 C 5.546875 4.101562 4.09375 1.523438 3.09375 -1.421875 C 2.09375 -4.367188 1.59375 -7.535156 1.59375 -10.921875 Z M 1.59375 -10.921875 "/></g></g></g><g fill="#184e86" fill-opacity="1"><g transform="translate(189.799713, 42.947143)"><g><path d="M 11.953125 0.390625 C 8.878906 0.390625 6.484375 -0.550781 4.765625 -2.4375 C 3.054688 -4.332031 2.203125 -7.046875 2.203125 -10.578125 C 2.203125 -14.160156 3.066406 -16.921875 4.796875 -18.859375 C 6.535156 -20.804688 9.007812 -21.78125 12.21875 -21.78125 C 13.25 -21.78125 14.273438 -21.671875 15.296875 -21.453125 C 16.316406 -21.242188 17.160156 -20.96875 17.828125 -20.625 L 16.75 -17.703125 C 14.945312 -18.378906 13.410156 -18.71875 12.140625 -18.71875 C 9.984375 -18.71875 8.390625 -18.035156 7.359375 -16.671875 C 6.335938 -15.316406 5.828125 -13.296875 5.828125 -10.609375 C 5.828125 -8.023438 6.335938 -6.046875 7.359375 -4.671875 C 8.390625 -3.304688 9.910156 -2.625 11.921875 -2.625 C 13.804688 -2.625 15.65625 -3.039062 17.46875 -3.875 L 17.46875 -0.765625 C 15.988281 0.00390625 14.148438 0.390625 11.953125 0.390625 Z M 11.953125 0.390625 "/></g></g></g><g fill="#184e86" fill-opacity="1"><g transform="translate(208.946776, 42.947143)"><g><path d="M 30.59375 0 L 30.59375 -13.765625 C 30.59375 -17.140625 29.144531 -18.828125 26.25 -18.828125 C 24.269531 -18.828125 22.8125 -18.25 21.875 -17.09375 C 20.9375 -15.945312 20.46875 -14.179688 20.46875 -11.796875 L 20.46875 0 L 16.984375 0 L 16.984375 -13.765625 C 16.984375 -15.453125 16.628906 -16.71875 15.921875 -17.5625 C 15.210938 -18.40625 14.109375 -18.828125 12.609375 -18.828125 C 10.628906 -18.828125 9.179688 -18.222656 8.265625 -17.015625 C 7.347656 -15.816406 6.890625 -13.835938 6.890625 -11.078125 L 6.890625 0 L 3.390625 0 L 3.390625 -21.390625 L 6.21875 -21.390625 L 6.734375 -18.46875 L 6.9375 -18.46875 C 7.539062 -19.5 8.398438 -20.304688 9.515625 -20.890625 C 10.628906 -21.484375 11.875 -21.78125 13.25 -21.78125 C 16.59375 -21.78125 18.773438 -20.582031 19.796875 -18.1875 L 19.984375 -18.1875 C 20.671875 -19.332031 21.609375 -20.21875 22.796875 -20.84375 C 23.984375 -21.46875 25.332031 -21.78125 26.84375 -21.78125 C 29.257812 -21.78125 31.066406 -21.15625 32.265625 -19.90625 C 33.460938 -18.65625 34.0625 -16.660156 34.0625 -13.921875 L 34.0625 0 Z M 30.59375 0 "/></g></g></g><g fill="#184e86" fill-opacity="1"><g transform="translate(246.247525, 42.947143)"><g><path d="M 10.359375 -10.921875 C 10.359375 -7.503906 9.851562 -4.320312 8.84375 -1.375 C 7.84375 1.5625 6.394531 4.125 4.5 6.3125 L 1.234375 6.3125 C 3.035156 3.875 4.414062 1.164062 5.375 -1.8125 C 6.332031 -4.800781 6.8125 -7.851562 6.8125 -10.96875 C 6.8125 -14.132812 6.34375 -17.21875 5.40625 -20.21875 C 4.46875 -23.21875 3.0625 -25.972656 1.1875 -28.484375 L 4.5 -28.484375 C 6.40625 -26.203125 7.859375 -23.554688 8.859375 -20.546875 C 9.859375 -17.546875 10.359375 -14.335938 10.359375 -10.921875 Z M 10.359375 -10.921875 "/></g></g></g></g></g><g transform="matrix(1, 0, 0, 1, 738, 667)"><g clip-path="url(#ea79f7d370)"><g clip-path="url(#bdef384bee)"><g fill="#0d1423" fill-opacity="1"><g transform="translate(0.313847, 73.560997)"><g><path d="M 36.25 0 L 32.6875 -11.6875 L 14.78125 -11.6875 L 11.21875 0 L 0 0 L 17.34375 -49.328125 L 30.078125 -49.328125 L 47.484375 0 Z M 30.203125 -20.421875 C 26.910156 -31.023438 25.054688 -37.019531 24.640625 -38.40625 C 24.234375 -39.789062 23.9375 -40.890625 23.75 -41.703125 C 23.007812 -38.828125 20.894531 -31.734375 17.40625 -20.421875 Z M 30.203125 -20.421875 "/></g></g></g></g><g fill="#0d1423" fill-opacity="1"><g transform="translate(47.788403, 73.560997)"><g><path d="M 20.625 -31.375 C 25.375 -31.375 29.15625 -30.039062 31.96875 -27.375 C 34.78125 -24.71875 36.1875 -21.070312 36.1875 -16.4375 C 36.1875 -10.945312 34.492188 -6.722656 31.109375 -3.765625 C 27.734375 -0.804688 22.894531 0.671875 16.59375 0.671875 C 11.132812 0.671875 6.722656 -0.210938 3.359375 -1.984375 L 3.359375 -10.953125 C 5.128906 -10.015625 7.191406 -9.25 9.546875 -8.65625 C 11.898438 -8.0625 14.128906 -7.765625 16.234375 -7.765625 C 22.566406 -7.765625 25.734375 -10.363281 25.734375 -15.5625 C 25.734375 -20.507812 22.453125 -22.984375 15.890625 -22.984375 C 14.703125 -22.984375 13.390625 -22.863281 11.953125 -22.625 C 10.523438 -22.394531 9.363281 -22.144531 8.46875 -21.875 L 4.328125 -24.09375 L 6.1875 -49.125 L 32.828125 -49.125 L 32.828125 -40.3125 L 15.28125 -40.3125 L 14.375 -30.671875 L 15.5625 -30.90625 C 16.925781 -31.21875 18.613281 -31.375 20.625 -31.375 Z M 20.625 -31.375 "/></g></g></g></g></g><g transform="matrix(1, 0, 0, 1, 686, 754)"><g clip-path="url(#e8a1cc2be3)"><g fill="#184e86" fill-opacity="1"><g transform="translate(0.681304, 35.999381)"><g><path d="M 11.84375 0 L 8.984375 0 L 8.984375 -16.65625 C 8.984375 -18.132812 9.023438 -19.503906 9.109375 -20.765625 C 8.804688 -20.429688 8.476562 -20.125 8.125 -19.84375 C 7.019531 -18.925781 5.8125 -17.925781 4.5 -16.84375 L 2.96875 -18.828125 L 9.421875 -23.828125 L 11.84375 -23.828125 Z M 11.84375 0 "/></g></g></g><g fill="#184e86" fill-opacity="1"><g transform="translate(19.7633, 35.999381)"><g><path d="M 18.421875 -5.40625 L 14.953125 -5.40625 L 14.953125 0 L 12.109375 0 L 12.109375 -5.40625 L 0.703125 -5.40625 L 0.703125 -7.90625 L 11.90625 -23.953125 L 14.953125 -23.953125 L 14.953125 -8.046875 L 18.421875 -8.046875 Z M 12.109375 -8.046875 L 12.109375 -15.546875 C 12.109375 -17.035156 12.164062 -18.796875 12.28125 -20.828125 L 12.140625 -20.828125 C 12.023438 -20.546875 11.816406 -20.117188 11.515625 -19.546875 C 11.210938 -18.984375 10.941406 -18.539062 10.703125 -18.21875 L 3.5625 -8.046875 Z M 12.109375 -8.046875 "/></g></g></g><g fill="#184e86" fill-opacity="1"><g transform="translate(38.845296, 35.999381)"><g><path d="M 2.390625 -1.8125 C 2.390625 -2.53125 2.566406 -3.082031 2.921875 -3.46875 C 3.273438 -3.851562 3.78125 -4.046875 4.4375 -4.046875 C 5.09375 -4.046875 5.601562 -3.851562 5.96875 -3.46875 C 6.34375 -3.082031 6.53125 -2.53125 6.53125 -1.8125 C 6.53125 -1.101562 6.34375 -0.546875 5.96875 -0.140625 C 5.601562 0.265625 5.09375 0.46875 4.4375 0.46875 C 3.789062 0.46875 3.285156 0.269531 2.921875 -0.125 C 2.566406 -0.53125 2.390625 -1.09375 2.390625 -1.8125 Z M 2.390625 -1.8125 "/></g></g></g><g fill="#184e86" fill-opacity="1"><g transform="translate(47.791511, 35.999381)"><g><path d="M 9.515625 -24.171875 C 11.691406 -24.171875 13.425781 -23.664062 14.71875 -22.65625 C 16.007812 -21.644531 16.65625 -20.25 16.65625 -18.46875 C 16.65625 -17.269531 16.289062 -16.195312 15.5625 -15.25 C 14.84375 -14.300781 13.691406 -13.421875 12.109375 -12.609375 C 14.035156 -11.679688 15.398438 -10.707031 16.203125 -9.6875 C 17.015625 -8.675781 17.421875 -7.503906 17.421875 -6.171875 C 17.421875 -4.191406 16.71875 -2.613281 15.3125 -1.4375 C 13.914062 -0.257812 12.015625 0.328125 9.609375 0.328125 C 7.066406 0.328125 5.097656 -0.222656 3.703125 -1.328125 C 2.316406 -2.441406 1.625 -4.023438 1.625 -6.078125 C 1.625 -8.796875 3.269531 -10.921875 6.5625 -12.453125 C 5.082031 -13.296875 4.015625 -14.207031 3.359375 -15.1875 C 2.710938 -16.164062 2.390625 -17.269531 2.390625 -18.5 C 2.390625 -20.226562 3.039062 -21.601562 4.34375 -22.625 C 5.644531 -23.65625 7.367188 -24.171875 9.515625 -24.171875 Z M 4.5 -6.046875 C 4.5 -4.785156 4.945312 -3.796875 5.84375 -3.078125 C 6.738281 -2.359375 7.972656 -2 9.546875 -2 C 11.097656 -2 12.316406 -2.363281 13.203125 -3.09375 C 14.097656 -3.832031 14.546875 -4.847656 14.546875 -6.140625 C 14.546875 -7.179688 14.125 -8.109375 13.28125 -8.921875 C 12.4375 -9.742188 11.015625 -10.519531 9.015625 -11.25 C 7.441406 -10.570312 6.296875 -9.816406 5.578125 -8.984375 C 4.859375 -8.160156 4.5 -7.179688 4.5 -6.046875 Z M 9.484375 -21.78125 C 8.203125 -21.78125 7.179688 -21.476562 6.421875 -20.875 C 5.660156 -20.269531 5.28125 -19.425781 5.28125 -18.34375 C 5.28125 -17.664062 5.425781 -17.066406 5.71875 -16.546875 C 6.007812 -16.023438 6.429688 -15.554688 6.984375 -15.140625 C 7.546875 -14.722656 8.429688 -14.257812 9.640625 -13.75 C 11.128906 -14.375 12.1875 -15.054688 12.8125 -15.796875 C 13.4375 -16.535156 13.75 -17.382812 13.75 -18.34375 C 13.75 -19.4375 13.363281 -20.28125 12.59375 -20.875 C 11.820312 -21.476562 10.785156 -21.78125 9.484375 -21.78125 Z M 9.484375 -21.78125 "/></g></g></g><g fill="#184e86" fill-opacity="1"><g transform="translate(75.542693, 35.999381)"><g><path d="M 7.078125 -9.140625 L 0.890625 -17.890625 L 4.234375 -17.890625 L 8.84375 -11.140625 L 13.40625 -17.890625 L 16.71875 -17.890625 L 10.546875 -9.140625 L 17.0625 0 L 13.71875 0 L 8.84375 -7.140625 L 3.90625 0 L 0.609375 0 Z M 7.078125 -9.140625 "/></g></g></g><g fill="#184e86" fill-opacity="1"><g transform="translate(101.859881, 35.999381)"><g><path d="M 17.359375 0 L 1.59375 0 L 1.59375 -2.4375 L 7.84375 -8.75 C 9.71875 -10.65625 10.957031 -12.015625 11.5625 -12.828125 C 12.175781 -13.640625 12.628906 -14.425781 12.921875 -15.1875 C 13.222656 -15.945312 13.375 -16.769531 13.375 -17.65625 C 13.375 -18.914062 13 -19.894531 12.25 -20.59375 C 11.5 -21.300781 10.472656 -21.65625 9.171875 -21.65625 C 8.191406 -21.65625 7.265625 -21.492188 6.390625 -21.171875 C 5.515625 -20.847656 4.53125 -20.253906 3.4375 -19.390625 L 1.875 -21.359375 C 4.101562 -23.234375 6.535156 -24.171875 9.171875 -24.171875 C 11.390625 -24.171875 13.144531 -23.601562 14.4375 -22.46875 C 15.738281 -21.332031 16.390625 -19.785156 16.390625 -17.828125 C 16.390625 -16.785156 16.195312 -15.773438 15.8125 -14.796875 C 15.4375 -13.828125 14.867188 -12.835938 14.109375 -11.828125 C 13.347656 -10.828125 12.070312 -9.453125 10.28125 -7.703125 L 5.3125 -2.796875 L 5.3125 -2.671875 L 17.359375 -2.671875 Z M 17.359375 0 "/></g></g></g><g fill="#184e86" fill-opacity="1"><g transform="translate(120.941873, 35.999381)"><g><path d="M 11.84375 0 L 8.984375 0 L 8.984375 -16.65625 C 8.984375 -18.132812 9.023438 -19.503906 9.109375 -20.765625 C 8.804688 -20.429688 8.476562 -20.125 8.125 -19.84375 C 7.019531 -18.925781 5.8125 -17.925781 4.5 -16.84375 L 2.96875 -18.828125 L 9.421875 -23.828125 L 11.84375 -23.828125 Z M 11.84375 0 "/></g></g></g><g fill="#184e86" fill-opacity="1"><g transform="translate(148.693055, 35.999381)"><g><path d="M 1.34375 -9.140625 C 1.34375 -12.015625 1.757812 -14.707031 2.59375 -17.21875 C 3.4375 -19.726562 4.648438 -21.929688 6.234375 -23.828125 L 9.015625 -23.828125 C 7.453125 -21.734375 6.273438 -19.429688 5.484375 -16.921875 C 4.691406 -14.410156 4.296875 -11.828125 4.296875 -9.171875 C 4.296875 -6.566406 4.695312 -4.019531 5.5 -1.53125 C 6.3125 0.957031 7.472656 3.226562 8.984375 5.28125 L 6.234375 5.28125 C 4.640625 3.4375 3.425781 1.28125 2.59375 -1.1875 C 1.757812 -3.65625 1.34375 -6.304688 1.34375 -9.140625 Z M 1.34375 -9.140625 "/></g></g></g><g fill="#184e86" fill-opacity="1"><g transform="translate(158.698485, 35.999381)"><g><path d="M 10 0.328125 C 7.425781 0.328125 5.421875 -0.460938 3.984375 -2.046875 C 2.554688 -3.628906 1.84375 -5.894531 1.84375 -8.84375 C 1.84375 -11.84375 2.566406 -14.15625 4.015625 -15.78125 C 5.460938 -17.40625 7.53125 -18.21875 10.21875 -18.21875 C 11.082031 -18.21875 11.941406 -18.128906 12.796875 -17.953125 C 13.648438 -17.773438 14.351562 -17.546875 14.90625 -17.265625 L 14.015625 -14.8125 C 12.503906 -15.375 11.21875 -15.65625 10.15625 -15.65625 C 8.351562 -15.65625 7.019531 -15.085938 6.15625 -13.953125 C 5.300781 -12.816406 4.875 -11.125 4.875 -8.875 C 4.875 -6.71875 5.300781 -5.066406 6.15625 -3.921875 C 7.019531 -2.773438 8.289062 -2.203125 9.96875 -2.203125 C 11.550781 -2.203125 13.101562 -2.550781 14.625 -3.25 L 14.625 -0.640625 C 13.382812 0.00390625 11.84375 0.328125 10 0.328125 Z M 10 0.328125 "/></g></g></g><g fill="#184e86" fill-opacity="1"><g transform="translate(174.716929, 35.999381)"><g><path d="M 25.609375 0 L 25.609375 -11.515625 C 25.609375 -14.347656 24.394531 -15.765625 21.96875 -15.765625 C 20.300781 -15.765625 19.078125 -15.28125 18.296875 -14.3125 C 17.515625 -13.34375 17.125 -11.863281 17.125 -9.875 L 17.125 0 L 14.203125 0 L 14.203125 -11.515625 C 14.203125 -12.929688 13.90625 -13.992188 13.3125 -14.703125 C 12.726562 -15.410156 11.804688 -15.765625 10.546875 -15.765625 C 8.890625 -15.765625 7.675781 -15.257812 6.90625 -14.25 C 6.144531 -13.238281 5.765625 -11.578125 5.765625 -9.265625 L 5.765625 0 L 2.828125 0 L 2.828125 -17.890625 L 5.203125 -17.890625 L 5.640625 -15.453125 L 5.796875 -15.453125 C 6.304688 -16.316406 7.023438 -16.992188 7.953125 -17.484375 C 8.890625 -17.972656 9.929688 -18.21875 11.078125 -18.21875 C 13.878906 -18.21875 15.707031 -17.21875 16.5625 -15.21875 L 16.71875 -15.21875 C 17.289062 -16.175781 18.070312 -16.914062 19.0625 -17.4375 C 20.0625 -17.957031 21.191406 -18.21875 22.453125 -18.21875 C 24.472656 -18.21875 25.984375 -17.695312 26.984375 -16.65625 C 27.992188 -15.613281 28.5 -13.945312 28.5 -11.65625 L 28.5 0 Z M 25.609375 0 "/></g></g></g><g fill="#184e86" fill-opacity="1"><g transform="translate(205.922758, 35.999381)"><g><path d="M 8.671875 -9.140625 C 8.671875 -6.285156 8.25 -3.625 7.40625 -1.15625 C 6.5625 1.3125 5.347656 3.457031 3.765625 5.28125 L 1.03125 5.28125 C 2.539062 3.238281 3.695312 0.972656 4.5 -1.515625 C 5.300781 -4.015625 5.703125 -6.566406 5.703125 -9.171875 C 5.703125 -11.828125 5.304688 -14.410156 4.515625 -16.921875 C 3.734375 -19.429688 2.5625 -21.734375 1 -23.828125 L 3.765625 -23.828125 C 5.359375 -21.921875 6.570312 -19.707031 7.40625 -17.1875 C 8.25 -14.675781 8.671875 -11.992188 8.671875 -9.140625 Z M 8.671875 -9.140625 "/></g></g></g></g></g><g transform="matrix(1, 0, 0, 1, 1103, 576)"><g clip-path="url(#22aafa9393)"><g clip-path="url(#309e2814ea)"><g fill="#0d1423" fill-opacity="1"><g transform="translate(0.395919, 54.321532)"><g><path d="M 26.53125 0 L 23.921875 -8.5625 L 10.8125 -8.5625 L 8.21875 0 L 0 0 L 12.6875 -36.09375 L 22 -36.09375 L 34.75 0 Z M 22.109375 -14.953125 C 19.691406 -22.703125 18.332031 -27.082031 18.03125 -28.09375 C 17.726562 -29.113281 17.515625 -29.921875 17.390625 -30.515625 C 16.847656 -28.421875 15.296875 -23.234375 12.734375 -14.953125 Z M 22.109375 -14.953125 "/></g></g></g></g><g fill="#0d1423" fill-opacity="1"><g transform="translate(35.142776, 54.321532)"><g><path d="M 1.765625 -15.265625 C 1.765625 -22.378906 3.269531 -27.675781 6.28125 -31.15625 C 9.289062 -34.632812 13.796875 -36.375 19.796875 -36.375 C 21.847656 -36.375 23.453125 -36.25 24.609375 -36 L 24.609375 -29.921875 C 23.148438 -30.253906 21.707031 -30.421875 20.28125 -30.421875 C 17.675781 -30.421875 15.550781 -30.023438 13.90625 -29.234375 C 12.257812 -28.453125 11.023438 -27.289062 10.203125 -25.75 C 9.378906 -24.207031 8.894531 -22.019531 8.75 -19.1875 L 9.078125 -19.1875 C 10.703125 -21.96875 13.300781 -23.359375 16.875 -23.359375 C 20.082031 -23.359375 22.59375 -22.347656 24.40625 -20.328125 C 26.226562 -18.316406 27.140625 -15.53125 27.140625 -11.96875 C 27.140625 -8.132812 26.054688 -5.097656 23.890625 -2.859375 C 21.734375 -0.628906 18.738281 0.484375 14.90625 0.484375 C 12.25 0.484375 9.929688 -0.128906 7.953125 -1.359375 C 5.972656 -2.585938 4.445312 -4.378906 3.375 -6.734375 C 2.300781 -9.097656 1.765625 -11.941406 1.765625 -15.265625 Z M 14.75 -5.578125 C 16.375 -5.578125 17.617188 -6.125 18.484375 -7.21875 C 19.359375 -8.3125 19.796875 -9.863281 19.796875 -11.875 C 19.796875 -13.632812 19.390625 -15.015625 18.578125 -16.015625 C 17.765625 -17.023438 16.539062 -17.53125 14.90625 -17.53125 C 13.363281 -17.53125 12.046875 -17.03125 10.953125 -16.03125 C 9.859375 -15.03125 9.3125 -13.867188 9.3125 -12.546875 C 9.3125 -10.585938 9.820312 -8.9375 10.84375 -7.59375 C 11.875 -6.25 13.175781 -5.578125 14.75 -5.578125 Z M 14.75 -5.578125 "/></g></g></g></g></g><g transform="matrix(1, 0, 0, 1, 1066, 640)"><g clip-path="url(#60b65c9387)"><g fill="#184e86" fill-opacity="1"><g transform="translate(1.356369, 26.505721)"><g><path d="M 8.671875 0 L 6.578125 0 L 6.578125 -12.1875 C 6.578125 -13.269531 6.609375 -14.269531 6.671875 -15.1875 C 6.441406 -14.945312 6.203125 -14.726562 5.953125 -14.53125 C 5.140625 -13.851562 4.253906 -13.117188 3.296875 -12.328125 L 2.171875 -13.765625 L 6.890625 -17.4375 L 8.671875 -17.4375 Z M 8.671875 0 "/></g></g></g><g fill="#184e86" fill-opacity="1"><g transform="translate(15.322571, 26.505721)"><g><path d="M 12.765625 -8.734375 C 12.765625 -5.710938 12.285156 -3.460938 11.328125 -1.984375 C 10.367188 -0.503906 8.914062 0.234375 6.96875 0.234375 C 5.070312 0.234375 3.632812 -0.523438 2.65625 -2.046875 C 1.675781 -3.566406 1.1875 -5.796875 1.1875 -8.734375 C 1.1875 -11.773438 1.65625 -14.03125 2.59375 -15.5 C 3.539062 -16.96875 5 -17.703125 6.96875 -17.703125 C 8.851562 -17.703125 10.289062 -16.9375 11.28125 -15.40625 C 12.269531 -13.882812 12.765625 -11.660156 12.765625 -8.734375 Z M 3.34375 -8.734375 C 3.34375 -6.210938 3.628906 -4.390625 4.203125 -3.265625 C 4.785156 -2.148438 5.707031 -1.59375 6.96875 -1.59375 C 8.238281 -1.59375 9.160156 -2.164062 9.734375 -3.3125 C 10.304688 -4.457031 10.59375 -6.265625 10.59375 -8.734375 C 10.59375 -11.179688 10.304688 -12.984375 9.734375 -14.140625 C 9.160156 -15.296875 8.238281 -15.875 6.96875 -15.875 C 5.695312 -15.875 4.773438 -15.304688 4.203125 -14.171875 C 3.628906 -13.046875 3.34375 -11.234375 3.34375 -8.734375 Z M 3.34375 -8.734375 "/></g></g></g><g fill="#184e86" fill-opacity="1"><g transform="translate(29.288774, 26.505721)"><g><path d="M 1.75 -1.328125 C 1.75 -1.847656 1.878906 -2.25 2.140625 -2.53125 C 2.398438 -2.8125 2.769531 -2.953125 3.25 -2.953125 C 3.726562 -2.953125 4.101562 -2.8125 4.375 -2.53125 C 4.644531 -2.25 4.78125 -1.847656 4.78125 -1.328125 C 4.78125 -0.804688 4.644531 -0.394531 4.375 -0.09375 C 4.101562 0.195312 3.726562 0.34375 3.25 0.34375 C 2.78125 0.34375 2.410156 0.195312 2.140625 -0.09375 C 1.878906 -0.382812 1.75 -0.796875 1.75 -1.328125 Z M 1.75 -1.328125 "/></g></g></g><g fill="#184e86" fill-opacity="1"><g transform="translate(35.836551, 26.505721)"><g><path d="M 6.71875 -10.703125 C 8.53125 -10.703125 9.957031 -10.242188 11 -9.328125 C 12.050781 -8.410156 12.578125 -7.15625 12.578125 -5.5625 C 12.578125 -3.75 12 -2.328125 10.84375 -1.296875 C 9.695312 -0.273438 8.101562 0.234375 6.0625 0.234375 C 4.113281 0.234375 2.601562 -0.078125 1.53125 -0.703125 L 1.53125 -2.734375 C 2.125 -2.378906 2.832031 -2.097656 3.65625 -1.890625 C 4.488281 -1.691406 5.296875 -1.59375 6.078125 -1.59375 C 7.441406 -1.59375 8.5 -1.914062 9.25 -2.5625 C 10 -3.21875 10.375 -4.148438 10.375 -5.359375 C 10.375 -7.710938 8.921875 -8.890625 6.015625 -8.890625 C 5.078125 -8.890625 4.082031 -8.769531 3.03125 -8.53125 L 1.953125 -9.203125 L 2.609375 -17.4375 L 11.359375 -17.4375 L 11.359375 -15.484375 L 4.453125 -15.484375 L 4.03125 -10.421875 C 4.945312 -10.609375 5.84375 -10.703125 6.71875 -10.703125 Z M 6.71875 -10.703125 "/></g></g></g><g fill="#184e86" fill-opacity="1"><g transform="translate(49.802756, 26.505721)"><g/></g></g><g fill="#184e86" fill-opacity="1"><g transform="translate(56.147772, 26.505721)"><g><path d="M 5.171875 -6.6875 L 0.65625 -13.09375 L 3.09375 -13.09375 L 6.46875 -8.15625 L 9.8125 -13.09375 L 12.234375 -13.09375 L 7.71875 -6.6875 L 12.484375 0 L 10.046875 0 L 6.46875 -5.21875 L 2.859375 0 L 0.4375 0 Z M 5.171875 -6.6875 "/></g></g></g><g fill="#184e86" fill-opacity="1"><g transform="translate(69.064425, 26.505721)"><g/></g></g><g fill="#184e86" fill-opacity="1"><g transform="translate(75.409446, 26.505721)"><g><path d="M 8.671875 0 L 6.578125 0 L 6.578125 -12.1875 C 6.578125 -13.269531 6.609375 -14.269531 6.671875 -15.1875 C 6.441406 -14.945312 6.203125 -14.726562 5.953125 -14.53125 C 5.140625 -13.851562 4.253906 -13.117188 3.296875 -12.328125 L 2.171875 -13.765625 L 6.890625 -17.4375 L 8.671875 -17.4375 Z M 8.671875 0 "/></g></g></g><g fill="#184e86" fill-opacity="1"><g transform="translate(89.375646, 26.505721)"><g><path d="M 13.46875 -3.953125 L 10.953125 -3.953125 L 10.953125 0 L 8.859375 0 L 8.859375 -3.953125 L 0.515625 -3.953125 L 0.515625 -5.78125 L 8.71875 -17.53125 L 10.953125 -17.53125 L 10.953125 -5.890625 L 13.46875 -5.890625 Z M 8.859375 -5.890625 L 8.859375 -11.375 C 8.859375 -12.46875 8.898438 -13.753906 8.984375 -15.234375 L 8.890625 -15.234375 C 8.796875 -15.035156 8.640625 -14.726562 8.421875 -14.3125 C 8.203125 -13.894531 8.003906 -13.566406 7.828125 -13.328125 L 2.609375 -5.890625 Z M 8.859375 -5.890625 "/></g></g></g><g fill="#184e86" fill-opacity="1"><g transform="translate(103.341851, 26.505721)"><g><path d="M 1.75 -1.328125 C 1.75 -1.847656 1.878906 -2.25 2.140625 -2.53125 C 2.398438 -2.8125 2.769531 -2.953125 3.25 -2.953125 C 3.726562 -2.953125 4.101562 -2.8125 4.375 -2.53125 C 4.644531 -2.25 4.78125 -1.847656 4.78125 -1.328125 C 4.78125 -0.804688 4.644531 -0.394531 4.375 -0.09375 C 4.101562 0.195312 3.726562 0.34375 3.25 0.34375 C 2.78125 0.34375 2.410156 0.195312 2.140625 -0.09375 C 1.878906 -0.382812 1.75 -0.796875 1.75 -1.328125 Z M 1.75 -1.328125 "/></g></g></g><g fill="#184e86" fill-opacity="1"><g transform="translate(109.889634, 26.505721)"><g><path d="M 6.96875 -17.6875 C 8.550781 -17.6875 9.816406 -17.316406 10.765625 -16.578125 C 11.710938 -15.835938 12.1875 -14.816406 12.1875 -13.515625 C 12.1875 -12.640625 11.921875 -11.851562 11.390625 -11.15625 C 10.859375 -10.46875 10.015625 -9.828125 8.859375 -9.234375 C 10.265625 -8.546875 11.265625 -7.828125 11.859375 -7.078125 C 12.453125 -6.335938 12.75 -5.484375 12.75 -4.515625 C 12.75 -3.066406 12.234375 -1.910156 11.203125 -1.046875 C 10.179688 -0.191406 8.789062 0.234375 7.03125 0.234375 C 5.175781 0.234375 3.738281 -0.164062 2.71875 -0.96875 C 1.695312 -1.78125 1.1875 -2.941406 1.1875 -4.453125 C 1.1875 -6.429688 2.394531 -7.984375 4.8125 -9.109375 C 3.726562 -9.734375 2.945312 -10.398438 2.46875 -11.109375 C 1.988281 -11.828125 1.75 -12.632812 1.75 -13.53125 C 1.75 -14.800781 2.222656 -15.8125 3.171875 -16.5625 C 4.128906 -17.3125 5.394531 -17.6875 6.96875 -17.6875 Z M 3.296875 -4.421875 C 3.296875 -3.503906 3.625 -2.78125 4.28125 -2.25 C 4.9375 -1.726562 5.835938 -1.46875 6.984375 -1.46875 C 8.117188 -1.46875 9.015625 -1.734375 9.671875 -2.265625 C 10.328125 -2.804688 10.65625 -3.550781 10.65625 -4.5 C 10.65625 -5.257812 10.34375 -5.9375 9.71875 -6.53125 C 9.09375 -7.125 8.050781 -7.691406 6.59375 -8.234375 C 5.4375 -7.734375 4.597656 -7.179688 4.078125 -6.578125 C 3.554688 -5.972656 3.296875 -5.253906 3.296875 -4.421875 Z M 6.9375 -15.9375 C 6 -15.9375 5.25 -15.710938 4.6875 -15.265625 C 4.132812 -14.828125 3.859375 -14.210938 3.859375 -13.421875 C 3.859375 -12.921875 3.960938 -12.476562 4.171875 -12.09375 C 4.390625 -11.71875 4.703125 -11.378906 5.109375 -11.078125 C 5.515625 -10.773438 6.164062 -10.4375 7.0625 -10.0625 C 8.144531 -10.519531 8.914062 -11.015625 9.375 -11.546875 C 9.832031 -12.085938 10.0625 -12.710938 10.0625 -13.421875 C 10.0625 -14.222656 9.78125 -14.84375 9.21875 -15.28125 C 8.65625 -15.71875 7.894531 -15.9375 6.9375 -15.9375 Z M 6.9375 -15.9375 "/></g></g></g><g fill="#184e86" fill-opacity="1"><g transform="translate(123.855828, 26.505721)"><g/></g></g><g fill="#184e86" fill-opacity="1"><g transform="translate(130.200854, 26.505721)"><g><path d="M 0.984375 -6.6875 C 0.984375 -8.789062 1.289062 -10.757812 1.90625 -12.59375 C 2.519531 -14.4375 3.40625 -16.050781 4.5625 -17.4375 L 6.59375 -17.4375 C 5.445312 -15.894531 4.582031 -14.207031 4 -12.375 C 3.425781 -10.539062 3.140625 -8.65625 3.140625 -6.71875 C 3.140625 -4.8125 3.429688 -2.945312 4.015625 -1.125 C 4.609375 0.695312 5.460938 2.359375 6.578125 3.859375 L 4.5625 3.859375 C 3.394531 2.515625 2.503906 0.941406 1.890625 -0.859375 C 1.285156 -2.671875 0.984375 -4.613281 0.984375 -6.6875 Z M 0.984375 -6.6875 "/></g></g></g><g fill="#184e86" fill-opacity="1"><g transform="translate(137.523864, 26.505721)"><g><path d="M 7.328125 0.234375 C 5.441406 0.234375 3.972656 -0.34375 2.921875 -1.5 C 1.867188 -2.65625 1.34375 -4.3125 1.34375 -6.46875 C 1.34375 -8.664062 1.875 -10.359375 2.9375 -11.546875 C 4 -12.734375 5.515625 -13.328125 7.484375 -13.328125 C 8.117188 -13.328125 8.742188 -13.257812 9.359375 -13.125 C 9.984375 -13 10.5 -12.832031 10.90625 -12.625 L 10.25 -10.84375 C 9.144531 -11.25 8.203125 -11.453125 7.421875 -11.453125 C 6.109375 -11.453125 5.132812 -11.035156 4.5 -10.203125 C 3.875 -9.378906 3.5625 -8.144531 3.5625 -6.5 C 3.5625 -4.914062 3.875 -3.703125 4.5 -2.859375 C 5.132812 -2.023438 6.066406 -1.609375 7.296875 -1.609375 C 8.453125 -1.609375 9.585938 -1.863281 10.703125 -2.375 L 10.703125 -0.46875 C 9.796875 0 8.671875 0.234375 7.328125 0.234375 Z M 7.328125 0.234375 "/></g></g></g><g fill="#184e86" fill-opacity="1"><g transform="translate(149.247839, 26.505721)"><g><path d="M 18.734375 0 L 18.734375 -8.4375 C 18.734375 -10.5 17.847656 -11.53125 16.078125 -11.53125 C 14.859375 -11.53125 13.960938 -11.175781 13.390625 -10.46875 C 12.816406 -9.757812 12.53125 -8.675781 12.53125 -7.21875 L 12.53125 0 L 10.390625 0 L 10.390625 -8.4375 C 10.390625 -9.46875 10.171875 -10.238281 9.734375 -10.75 C 9.304688 -11.269531 8.632812 -11.53125 7.71875 -11.53125 C 6.507812 -11.53125 5.625 -11.160156 5.0625 -10.421875 C 4.5 -9.679688 4.21875 -8.46875 4.21875 -6.78125 L 4.21875 0 L 2.078125 0 L 2.078125 -13.09375 L 3.796875 -13.09375 L 4.125 -11.296875 L 4.25 -11.296875 C 4.625 -11.941406 5.148438 -12.441406 5.828125 -12.796875 C 6.503906 -13.148438 7.265625 -13.328125 8.109375 -13.328125 C 10.160156 -13.328125 11.492188 -12.597656 12.109375 -11.140625 L 12.234375 -11.140625 C 12.648438 -11.835938 13.222656 -12.375 13.953125 -12.75 C 14.679688 -13.132812 15.507812 -13.328125 16.4375 -13.328125 C 17.914062 -13.328125 19.019531 -12.945312 19.75 -12.1875 C 20.488281 -11.425781 20.859375 -10.207031 20.859375 -8.53125 L 20.859375 0 Z M 18.734375 0 "/></g></g></g><g fill="#184e86" fill-opacity="1"><g transform="translate(172.087532, 26.505721)"><g><path d="M 6.34375 -6.6875 C 6.34375 -4.59375 6.035156 -2.644531 5.421875 -0.84375 C 4.804688 0.957031 3.914062 2.523438 2.75 3.859375 L 0.75 3.859375 C 1.851562 2.367188 2.695312 0.710938 3.28125 -1.109375 C 3.875 -2.941406 4.171875 -4.8125 4.171875 -6.71875 C 4.171875 -8.65625 3.878906 -10.539062 3.296875 -12.375 C 2.722656 -14.207031 1.867188 -15.894531 0.734375 -17.4375 L 2.75 -17.4375 C 3.914062 -16.039062 4.804688 -14.421875 5.421875 -12.578125 C 6.035156 -10.742188 6.34375 -8.78125 6.34375 -6.6875 Z M 6.34375 -6.6875 "/></g></g></g></g></g><g transform="matrix(1, 0, 0, 1, 1103, 812)"><g clip-path="url(#6426248e88)"><g clip-path="url(#6238a95b5e)"><g fill="#0d1423" fill-opacity="1"><g transform="translate(0.395919, 53.685333)"><g><path d="M 26.53125 0 L 23.921875 -8.5625 L 10.8125 -8.5625 L 8.21875 0 L 0 0 L 12.6875 -36.09375 L 22 -36.09375 L 34.75 0 Z M 22.109375 -14.953125 C 19.691406 -22.703125 18.332031 -27.082031 18.03125 -28.09375 C 17.726562 -29.113281 17.515625 -29.921875 17.390625 -30.515625 C 16.847656 -28.421875 15.296875 -23.234375 12.734375 -14.953125 Z M 22.109375 -14.953125 "/></g></g></g></g><g fill="#0d1423" fill-opacity="1"><g transform="translate(35.142776, 53.685333)"><g><path d="M 1.765625 -15.265625 C 1.765625 -22.378906 3.269531 -27.675781 6.28125 -31.15625 C 9.289062 -34.632812 13.796875 -36.375 19.796875 -36.375 C 21.847656 -36.375 23.453125 -36.25 24.609375 -36 L 24.609375 -29.921875 C 23.148438 -30.253906 21.707031 -30.421875 20.28125 -30.421875 C 17.675781 -30.421875 15.550781 -30.023438 13.90625 -29.234375 C 12.257812 -28.453125 11.023438 -27.289062 10.203125 -25.75 C 9.378906 -24.207031 8.894531 -22.019531 8.75 -19.1875 L 9.078125 -19.1875 C 10.703125 -21.96875 13.300781 -23.359375 16.875 -23.359375 C 20.082031 -23.359375 22.59375 -22.347656 24.40625 -20.328125 C 26.226562 -18.316406 27.140625 -15.53125 27.140625 -11.96875 C 27.140625 -8.132812 26.054688 -5.097656 23.890625 -2.859375 C 21.734375 -0.628906 18.738281 0.484375 14.90625 0.484375 C 12.25 0.484375 9.929688 -0.128906 7.953125 -1.359375 C 5.972656 -2.585938 4.445312 -4.378906 3.375 -6.734375 C 2.300781 -9.097656 1.765625 -11.941406 1.765625 -15.265625 Z M 14.75 -5.578125 C 16.375 -5.578125 17.617188 -6.125 18.484375 -7.21875 C 19.359375 -8.3125 19.796875 -9.863281 19.796875 -11.875 C 19.796875 -13.632812 19.390625 -15.015625 18.578125 -16.015625 C 17.765625 -17.023438 16.539062 -17.53125 14.90625 -17.53125 C 13.363281 -17.53125 12.046875 -17.03125 10.953125 -16.03125 C 9.859375 -15.03125 9.3125 -13.867188 9.3125 -12.546875 C 9.3125 -10.585938 9.820312 -8.9375 10.84375 -7.59375 C 11.875 -6.25 13.175781 -5.578125 14.75 -5.578125 Z M 14.75 -5.578125 "/></g></g></g></g></g><g transform="matrix(1, 0, 0, 1, 1063, 875)"><g clip-path="url(#992f810684)"><g fill="#184e86" fill-opacity="1"><g transform="translate(0.485196, 26.869522)"><g><path d="M 8.671875 0 L 6.578125 0 L 6.578125 -12.1875 C 6.578125 -13.269531 6.609375 -14.269531 6.671875 -15.1875 C 6.441406 -14.945312 6.203125 -14.726562 5.953125 -14.53125 C 5.140625 -13.851562 4.253906 -13.117188 3.296875 -12.328125 L 2.171875 -13.765625 L 6.890625 -17.4375 L 8.671875 -17.4375 Z M 8.671875 0 "/></g></g></g><g fill="#184e86" fill-opacity="1"><g transform="translate(14.451399, 26.869522)"><g><path d="M 12.765625 -8.734375 C 12.765625 -5.710938 12.285156 -3.460938 11.328125 -1.984375 C 10.367188 -0.503906 8.914062 0.234375 6.96875 0.234375 C 5.070312 0.234375 3.632812 -0.523438 2.65625 -2.046875 C 1.675781 -3.566406 1.1875 -5.796875 1.1875 -8.734375 C 1.1875 -11.773438 1.65625 -14.03125 2.59375 -15.5 C 3.539062 -16.96875 5 -17.703125 6.96875 -17.703125 C 8.851562 -17.703125 10.289062 -16.9375 11.28125 -15.40625 C 12.269531 -13.882812 12.765625 -11.660156 12.765625 -8.734375 Z M 3.34375 -8.734375 C 3.34375 -6.210938 3.628906 -4.390625 4.203125 -3.265625 C 4.785156 -2.148438 5.707031 -1.59375 6.96875 -1.59375 C 8.238281 -1.59375 9.160156 -2.164062 9.734375 -3.3125 C 10.304688 -4.457031 10.59375 -6.265625 10.59375 -8.734375 C 10.59375 -11.179688 10.304688 -12.984375 9.734375 -14.140625 C 9.160156 -15.296875 8.238281 -15.875 6.96875 -15.875 C 5.695312 -15.875 4.773438 -15.304688 4.203125 -14.171875 C 3.628906 -13.046875 3.34375 -11.234375 3.34375 -8.734375 Z M 3.34375 -8.734375 "/></g></g></g><g fill="#184e86" fill-opacity="1"><g transform="translate(28.417602, 26.869522)"><g><path d="M 1.75 -1.328125 C 1.75 -1.847656 1.878906 -2.25 2.140625 -2.53125 C 2.398438 -2.8125 2.769531 -2.953125 3.25 -2.953125 C 3.726562 -2.953125 4.101562 -2.8125 4.375 -2.53125 C 4.644531 -2.25 4.78125 -1.847656 4.78125 -1.328125 C 4.78125 -0.804688 4.644531 -0.394531 4.375 -0.09375 C 4.101562 0.195312 3.726562 0.34375 3.25 0.34375 C 2.78125 0.34375 2.410156 0.195312 2.140625 -0.09375 C 1.878906 -0.382812 1.75 -0.796875 1.75 -1.328125 Z M 1.75 -1.328125 "/></g></g></g><g fill="#184e86" fill-opacity="1"><g transform="translate(34.965378, 26.869522)"><g><path d="M 6.71875 -10.703125 C 8.53125 -10.703125 9.957031 -10.242188 11 -9.328125 C 12.050781 -8.410156 12.578125 -7.15625 12.578125 -5.5625 C 12.578125 -3.75 12 -2.328125 10.84375 -1.296875 C 9.695312 -0.273438 8.101562 0.234375 6.0625 0.234375 C 4.113281 0.234375 2.601562 -0.078125 1.53125 -0.703125 L 1.53125 -2.734375 C 2.125 -2.378906 2.832031 -2.097656 3.65625 -1.890625 C 4.488281 -1.691406 5.296875 -1.59375 6.078125 -1.59375 C 7.441406 -1.59375 8.5 -1.914062 9.25 -2.5625 C 10 -3.21875 10.375 -4.148438 10.375 -5.359375 C 10.375 -7.710938 8.921875 -8.890625 6.015625 -8.890625 C 5.078125 -8.890625 4.082031 -8.769531 3.03125 -8.53125 L 1.953125 -9.203125 L 2.609375 -17.4375 L 11.359375 -17.4375 L 11.359375 -15.484375 L 4.453125 -15.484375 L 4.03125 -10.421875 C 4.945312 -10.609375 5.84375 -10.703125 6.71875 -10.703125 Z M 6.71875 -10.703125 "/></g></g></g><g fill="#184e86" fill-opacity="1"><g transform="translate(48.931584, 26.869522)"><g/></g></g><g fill="#184e86" fill-opacity="1"><g transform="translate(55.276599, 26.869522)"><g><path d="M 5.171875 -6.6875 L 0.65625 -13.09375 L 3.09375 -13.09375 L 6.46875 -8.15625 L 9.8125 -13.09375 L 12.234375 -13.09375 L 7.71875 -6.6875 L 12.484375 0 L 10.046875 0 L 6.46875 -5.21875 L 2.859375 0 L 0.4375 0 Z M 5.171875 -6.6875 "/></g></g></g><g fill="#184e86" fill-opacity="1"><g transform="translate(68.193252, 26.869522)"><g/></g></g><g fill="#184e86" fill-opacity="1"><g transform="translate(74.538273, 26.869522)"><g><path d="M 8.671875 0 L 6.578125 0 L 6.578125 -12.1875 C 6.578125 -13.269531 6.609375 -14.269531 6.671875 -15.1875 C 6.441406 -14.945312 6.203125 -14.726562 5.953125 -14.53125 C 5.140625 -13.851562 4.253906 -13.117188 3.296875 -12.328125 L 2.171875 -13.765625 L 6.890625 -17.4375 L 8.671875 -17.4375 Z M 8.671875 0 "/></g></g></g><g fill="#184e86" fill-opacity="1"><g transform="translate(88.504473, 26.869522)"><g><path d="M 13.46875 -3.953125 L 10.953125 -3.953125 L 10.953125 0 L 8.859375 0 L 8.859375 -3.953125 L 0.515625 -3.953125 L 0.515625 -5.78125 L 8.71875 -17.53125 L 10.953125 -17.53125 L 10.953125 -5.890625 L 13.46875 -5.890625 Z M 8.859375 -5.890625 L 8.859375 -11.375 C 8.859375 -12.46875 8.898438 -13.753906 8.984375 -15.234375 L 8.890625 -15.234375 C 8.796875 -15.035156 8.640625 -14.726562 8.421875 -14.3125 C 8.203125 -13.894531 8.003906 -13.566406 7.828125 -13.328125 L 2.609375 -5.890625 Z M 8.859375 -5.890625 "/></g></g></g><g fill="#184e86" fill-opacity="1"><g transform="translate(102.470679, 26.869522)"><g><path d="M 1.75 -1.328125 C 1.75 -1.847656 1.878906 -2.25 2.140625 -2.53125 C 2.398438 -2.8125 2.769531 -2.953125 3.25 -2.953125 C 3.726562 -2.953125 4.101562 -2.8125 4.375 -2.53125 C 4.644531 -2.25 4.78125 -1.847656 4.78125 -1.328125 C 4.78125 -0.804688 4.644531 -0.394531 4.375 -0.09375 C 4.101562 0.195312 3.726562 0.34375 3.25 0.34375 C 2.78125 0.34375 2.410156 0.195312 2.140625 -0.09375 C 1.878906 -0.382812 1.75 -0.796875 1.75 -1.328125 Z M 1.75 -1.328125 "/></g></g></g><g fill="#184e86" fill-opacity="1"><g transform="translate(109.018461, 26.869522)"><g><path d="M 6.96875 -17.6875 C 8.550781 -17.6875 9.816406 -17.316406 10.765625 -16.578125 C 11.710938 -15.835938 12.1875 -14.816406 12.1875 -13.515625 C 12.1875 -12.640625 11.921875 -11.851562 11.390625 -11.15625 C 10.859375 -10.46875 10.015625 -9.828125 8.859375 -9.234375 C 10.265625 -8.546875 11.265625 -7.828125 11.859375 -7.078125 C 12.453125 -6.335938 12.75 -5.484375 12.75 -4.515625 C 12.75 -3.066406 12.234375 -1.910156 11.203125 -1.046875 C 10.179688 -0.191406 8.789062 0.234375 7.03125 0.234375 C 5.175781 0.234375 3.738281 -0.164062 2.71875 -0.96875 C 1.695312 -1.78125 1.1875 -2.941406 1.1875 -4.453125 C 1.1875 -6.429688 2.394531 -7.984375 4.8125 -9.109375 C 3.726562 -9.734375 2.945312 -10.398438 2.46875 -11.109375 C 1.988281 -11.828125 1.75 -12.632812 1.75 -13.53125 C 1.75 -14.800781 2.222656 -15.8125 3.171875 -16.5625 C 4.128906 -17.3125 5.394531 -17.6875 6.96875 -17.6875 Z M 3.296875 -4.421875 C 3.296875 -3.503906 3.625 -2.78125 4.28125 -2.25 C 4.9375 -1.726562 5.835938 -1.46875 6.984375 -1.46875 C 8.117188 -1.46875 9.015625 -1.734375 9.671875 -2.265625 C 10.328125 -2.804688 10.65625 -3.550781 10.65625 -4.5 C 10.65625 -5.257812 10.34375 -5.9375 9.71875 -6.53125 C 9.09375 -7.125 8.050781 -7.691406 6.59375 -8.234375 C 5.4375 -7.734375 4.597656 -7.179688 4.078125 -6.578125 C 3.554688 -5.972656 3.296875 -5.253906 3.296875 -4.421875 Z M 6.9375 -15.9375 C 6 -15.9375 5.25 -15.710938 4.6875 -15.265625 C 4.132812 -14.828125 3.859375 -14.210938 3.859375 -13.421875 C 3.859375 -12.921875 3.960938 -12.476562 4.171875 -12.09375 C 4.390625 -11.71875 4.703125 -11.378906 5.109375 -11.078125 C 5.515625 -10.773438 6.164062 -10.4375 7.0625 -10.0625 C 8.144531 -10.519531 8.914062 -11.015625 9.375 -11.546875 C 9.832031 -12.085938 10.0625 -12.710938 10.0625 -13.421875 C 10.0625 -14.222656 9.78125 -14.84375 9.21875 -15.28125 C 8.65625 -15.71875 7.894531 -15.9375 6.9375 -15.9375 Z M 6.9375 -15.9375 "/></g></g></g><g fill="#184e86" fill-opacity="1"><g transform="translate(122.984655, 26.869522)"><g/></g></g><g fill="#184e86" fill-opacity="1"><g transform="translate(129.329682, 26.869522)"><g><path d="M 0.984375 -6.6875 C 0.984375 -8.789062 1.289062 -10.757812 1.90625 -12.59375 C 2.519531 -14.4375 3.40625 -16.050781 4.5625 -17.4375 L 6.59375 -17.4375 C 5.445312 -15.894531 4.582031 -14.207031 4 -12.375 C 3.425781 -10.539062 3.140625 -8.65625 3.140625 -6.71875 C 3.140625 -4.8125 3.429688 -2.945312 4.015625 -1.125 C 4.609375 0.695312 5.460938 2.359375 6.578125 3.859375 L 4.5625 3.859375 C 3.394531 2.515625 2.503906 0.941406 1.890625 -0.859375 C 1.285156 -2.671875 0.984375 -4.613281 0.984375 -6.6875 Z M 0.984375 -6.6875 "/></g></g></g><g fill="#184e86" fill-opacity="1"><g transform="translate(136.652691, 26.869522)"><g><path d="M 7.328125 0.234375 C 5.441406 0.234375 3.972656 -0.34375 2.921875 -1.5 C 1.867188 -2.65625 1.34375 -4.3125 1.34375 -6.46875 C 1.34375 -8.664062 1.875 -10.359375 2.9375 -11.546875 C 4 -12.734375 5.515625 -13.328125 7.484375 -13.328125 C 8.117188 -13.328125 8.742188 -13.257812 9.359375 -13.125 C 9.984375 -13 10.5 -12.832031 10.90625 -12.625 L 10.25 -10.84375 C 9.144531 -11.25 8.203125 -11.453125 7.421875 -11.453125 C 6.109375 -11.453125 5.132812 -11.035156 4.5 -10.203125 C 3.875 -9.378906 3.5625 -8.144531 3.5625 -6.5 C 3.5625 -4.914062 3.875 -3.703125 4.5 -2.859375 C 5.132812 -2.023438 6.066406 -1.609375 7.296875 -1.609375 C 8.453125 -1.609375 9.585938 -1.863281 10.703125 -2.375 L 10.703125 -0.46875 C 9.796875 0 8.671875 0.234375 7.328125 0.234375 Z M 7.328125 0.234375 "/></g></g></g><g fill="#184e86" fill-opacity="1"><g transform="translate(148.376666, 26.869522)"><g><path d="M 18.734375 0 L 18.734375 -8.4375 C 18.734375 -10.5 17.847656 -11.53125 16.078125 -11.53125 C 14.859375 -11.53125 13.960938 -11.175781 13.390625 -10.46875 C 12.816406 -9.757812 12.53125 -8.675781 12.53125 -7.21875 L 12.53125 0 L 10.390625 0 L 10.390625 -8.4375 C 10.390625 -9.46875 10.171875 -10.238281 9.734375 -10.75 C 9.304688 -11.269531 8.632812 -11.53125 7.71875 -11.53125 C 6.507812 -11.53125 5.625 -11.160156 5.0625 -10.421875 C 4.5 -9.679688 4.21875 -8.46875 4.21875 -6.78125 L 4.21875 0 L 2.078125 0 L 2.078125 -13.09375 L 3.796875 -13.09375 L 4.125 -11.296875 L 4.25 -11.296875 C 4.625 -11.941406 5.148438 -12.441406 5.828125 -12.796875 C 6.503906 -13.148438 7.265625 -13.328125 8.109375 -13.328125 C 10.160156 -13.328125 11.492188 -12.597656 12.109375 -11.140625 L 12.234375 -11.140625 C 12.648438 -11.835938 13.222656 -12.375 13.953125 -12.75 C 14.679688 -13.132812 15.507812 -13.328125 16.4375 -13.328125 C 17.914062 -13.328125 19.019531 -12.945312 19.75 -12.1875 C 20.488281 -11.425781 20.859375 -10.207031 20.859375 -8.53125 L 20.859375 0 Z M 18.734375 0 "/></g></g></g><g fill="#184e86" fill-opacity="1"><g transform="translate(171.216359, 26.869522)"><g><path d="M 6.34375 -6.6875 C 6.34375 -4.59375 6.035156 -2.644531 5.421875 -0.84375 C 4.804688 0.957031 3.914062 2.523438 2.75 3.859375 L 0.75 3.859375 C 1.851562 2.367188 2.695312 0.710938 3.28125 -1.109375 C 3.875 -2.941406 4.171875 -4.8125 4.171875 -6.71875 C 4.171875 -8.65625 3.878906 -10.539062 3.296875 -12.375 C 2.722656 -14.207031 1.867188 -15.894531 0.734375 -17.4375 L 2.75 -17.4375 C 3.914062 -16.039062 4.804688 -14.421875 5.421875 -12.578125 C 6.035156 -10.742188 6.34375 -8.78125 6.34375 -6.6875 Z M 6.34375 -6.6875 "/></g></g></g></g></g></g></g></g></svg>